<svg width="32" height="32" viewBox="0 0 32 32" fill="none" xmlns="http://www.w3.org/2000/svg">
<path d="M16 2C8.26875 2 2 8.26875 2 16C2 23.7312 8.26875 30 16 30C23.7312 30 30 23.7312 30 16C30 8.26875 23.7312 2 16 2ZM16.6969 22.7875L16.7031 23.7781C16.7031 23.9156 16.5906 24.0312 16.4531 24.0312H15.5656C15.4281 24.0312 15.3156 23.9188 15.3156 23.7812V22.8C12.5406 22.5937 11.2344 21.0125 11.0938 19.2938C11.0812 19.1469 11.1969 19.0219 11.3438 19.0219H12.7875C12.9094 19.0219 13.0156 19.1094 13.0344 19.2281C13.1938 20.2187 13.9656 20.9594 15.35 21.1437V16.6844L14.5781 16.4875C12.9438 16.0969 11.3875 15.0781 11.3875 12.9656C11.3875 10.6875 13.1188 9.4625 15.3313 9.24687V8.21562C15.3313 8.07812 15.4438 7.96562 15.5813 7.96562H16.4594C16.5969 7.96562 16.7094 8.07812 16.7094 8.21562V9.2375C18.85 9.45313 20.4562 10.7031 20.6437 12.65C20.6594 12.7969 20.5437 12.925 20.3937 12.925H18.9906C18.8656 12.925 18.7594 12.8313 18.7437 12.7094C18.6187 11.7969 17.8875 11.0531 16.6969 10.8906V15.0875L17.4906 15.2719C19.5156 15.7719 20.8937 16.7406 20.8937 18.9094C20.8937 21.2625 19.1437 22.575 16.6969 22.7875ZM13.3313 12.8219C13.3313 13.6156 13.8219 14.2313 14.8781 14.6125C15.025 14.6719 15.1719 14.7188 15.3469 14.7688V10.8938C14.1938 11.0406 13.3313 11.6875 13.3313 12.8219ZM16.9719 17.0469C16.8844 17.0281 16.7969 17.0062 16.6969 16.9781V21.1562C18.0281 21.0375 18.9469 20.3062 18.9469 19.0812C18.9469 18.1219 18.45 17.4969 16.9719 17.0469Z" fill="#49AA26"/>
</svg>
